<svg id="Layer_1" data-name="Layer 1" xmlns="http://www.w3.org/2000/svg" xmlns:xlink="http://www.w3.org/1999/xlink" viewBox="0 0 23.5 28.06"><defs><style>.cls-1,.cls-2{fill:none;}.cls-1{clip-rule:evenodd;}.cls-3{clip-path:url(#clip-path);}.cls-4{clip-path:url(#clip-path-2);}.cls-5{fill:#010101;}.cls-6{clip-path:url(#clip-path-3);}</style><clipPath id="clip-path" transform="translate(0.01 -0.31)"><polygon class="cls-1" points="14.02 6.37 14.02 7.5 22 7.5 22 26.88 1.49 26.88 1.49 7.5 9.46 7.5 9.46 6.37 0.35 6.37 0.35 28.02 23.14 28.02 23.14 6.37 14.02 6.37"/></clipPath><clipPath id="clip-path-2" transform="translate(0.01 -0.31)"><rect class="cls-2" x="-224.93" y="-357.58" width="1111.5" height="1079.02"/></clipPath><clipPath id="clip-path-3" transform="translate(0.01 -0.31)"><polygon class="cls-1" points="7.26 14.08 6.44 14.9 11.74 20.21 17.05 14.9 16.22 14.08 12.33 17.97 12.33 0.67 11.16 0.67 11.16 17.97 7.26 14.08"/></clipPath></defs><title>download</title><g class="cls-3"><g class="cls-4"><rect class="cls-5" y="5.7" width="23.5" height="22.36"/></g></g><g class="cls-6"><g class="cls-4"><rect class="cls-5" x="6.09" width="11.32" height="20.26"/></g></g></svg>