<?xml version="1.0" encoding="utf-8"?>
<!-- Generator: Adobe Illustrator 22.0.1, SVG Export Plug-In . SVG Version: 6.00 Build 0)  -->
<svg version="1.1" id="Layer_1" xmlns="http://www.w3.org/2000/svg" xmlns:xlink="http://www.w3.org/1999/xlink" x="0px" y="0px"
	 viewBox="0 0 23.5 28.3" style="enable-background:new 0 0 23.5 28.3;" xml:space="preserve">
<style type="text/css">
	.st0{display:none;}
	.st1{display:inline;}
	.st2{clip-path:url(#SVGID_2_);}
	.st3{clip-path:url(#SVGID_4_);fill:#010101;}
	.st4{clip-path:url(#SVGID_6_);}
	.st5{clip-path:url(#SVGID_8_);fill:#010101;}
	.st6{clip-path:url(#SVGID_10_);}
	.st7{clip-path:url(#SVGID_12_);fill:#50BEA5;}
	.st8{clip-path:url(#SVGID_14_);}
	.st9{clip-path:url(#SVGID_16_);fill:#50BEA5;}
</style>
<g class="st0">
	<g class="st1">
		<defs>
			<polygon id="SVGID_1_" points="14,6.4 14,7.5 22,7.5 22,26.9 1.5,26.9 1.5,7.5 9.5,7.5 9.5,6.4 0.3,6.4 0.3,28 23.1,28 23.1,6.4 
							"/>
		</defs>
		<clipPath id="SVGID_2_">
			<use xlink:href="#SVGID_1_"  style="overflow:visible;"/>
		</clipPath>
		<g class="st2">
			<defs>
				<rect id="SVGID_3_" x="-224.9" y="-357.6" width="1111.5" height="1079"/>
			</defs>
			<clipPath id="SVGID_4_">
				<use xlink:href="#SVGID_3_"  style="overflow:visible;"/>
			</clipPath>
			<rect x="0" y="6" class="st3" width="23.5" height="22.4"/>
		</g>
	</g>
	<g class="st1">
		<defs>
			<polygon id="SVGID_5_" points="7.3,14.1 6.4,14.9 11.7,20.2 17,14.9 16.2,14.1 12.3,18 12.3,0.7 11.2,0.7 11.2,18 			"/>
		</defs>
		<clipPath id="SVGID_6_">
			<use xlink:href="#SVGID_5_"  style="overflow:visible;"/>
		</clipPath>
		<g class="st4">
			<defs>
				<rect id="SVGID_7_" x="-224.9" y="-357.6" width="1111.5" height="1079"/>
			</defs>
			<clipPath id="SVGID_8_">
				<use xlink:href="#SVGID_7_"  style="overflow:visible;"/>
			</clipPath>
			<rect x="6.1" y="0.3" class="st5" width="11.3" height="20.3"/>
		</g>
	</g>
</g>
<g>
	<g>
		<defs>
			<polygon id="SVGID_9_" points="12.3,6.4 12.3,18 16.2,14.1 17,14.9 11.7,20.2 6.4,14.9 7.3,14.1 11.2,18 11.2,6.4 0.4,6.4 
				0.4,28 23.1,28 23.1,6.4 			"/>
		</defs>
		<use xlink:href="#SVGID_9_"  style="overflow:visible;fill-rule:evenodd;clip-rule:evenodd;fill:#50BEA5;"/>
		<clipPath id="SVGID_10_">
			<use xlink:href="#SVGID_9_"  style="overflow:visible;"/>
		</clipPath>
		<g class="st6">
			<defs>
				<rect id="SVGID_11_" x="-289" y="-357.6" width="1111.5" height="1079"/>
			</defs>
			<use xlink:href="#SVGID_11_"  style="overflow:visible;fill:#50BEA5;"/>
			<clipPath id="SVGID_12_">
				<use xlink:href="#SVGID_11_"  style="overflow:visible;"/>
			</clipPath>
			<rect x="0" y="6" class="st7" width="23.5" height="22.4"/>
		</g>
	</g>
	<g>
		<defs>
			<rect id="SVGID_13_" x="11.2" y="0.7" width="1.1" height="5.7"/>
		</defs>
		<use xlink:href="#SVGID_13_"  style="overflow:visible;fill-rule:evenodd;clip-rule:evenodd;fill:#50BEA5;"/>
		<clipPath id="SVGID_14_">
			<use xlink:href="#SVGID_13_"  style="overflow:visible;"/>
		</clipPath>
		<g class="st8">
			<defs>
				<rect id="SVGID_15_" x="-289" y="-357.6" width="1111.5" height="1079"/>
			</defs>
			<use xlink:href="#SVGID_15_"  style="overflow:visible;fill:#50BEA5;"/>
			<clipPath id="SVGID_16_">
				<use xlink:href="#SVGID_15_"  style="overflow:visible;"/>
			</clipPath>
			<rect x="10.8" y="0.3" class="st9" width="1.9" height="6.4"/>
		</g>
	</g>
</g>
</svg>
